{
	"asset":{
		"generator":"Khronos glTF Blender I/O v5.0.21",
		"version":"2.0"
	},
	"extensionsUsed":[
		"KHR_materials_emissive_strength"
	],
	"scene":0,
	"scenes":[
		{
			"name":"Scene",
			"nodes":[
				0,
				1
			]
		}
	],
	"nodes":[
		{
			"mesh":0,
			"name":"BarrelLid",
			"scale":[
				0.9652293920516968,
				0.30574873089790344,
				0.9652296304702759
			],
			"translation":[
				-5.374170303344727,
				-0.5619854927062988,
				0
			]
		},
		{
			"mesh":1,
			"name":"Cylinder",
			"scale":[
				0.28726527094841003,
				0.28726527094841003,
				0.28726527094841003
			],
			"translation":[
				-5.374170303344727,
				-0.5619853734970093,
				0
			]
		}
	],
	"materials":[
		{
			"doubleSided":true,
			"name":"Material.010",
			"pbrMetallicRoughness":{
				"metallicFactor":0,
				"roughnessFactor":0.9248120188713074
			}
		},
		{
			"doubleSided":true,
			"emissiveFactor":[
				1,
				1,
				1
			],
			"extensions":{
				"KHR_materials_emissive_strength":{
					"emissiveStrength":100
				}
			},
			"name":"6698193-hd_1920_1080_25fps",
			"pbrMetallicRoughness":{
				"baseColorFactor":[
					0,
					0,
					0,
					1
				]
			}
		}
	],
	"meshes":[
		{
			"name":"Cylinder.008",
			"primitives":[
				{
					"attributes":{
						"POSITION":0,
						"NORMAL":1,
						"TEXCOORD_0":2
					},
					"indices":3,
					"material":0
				}
			]
		},
		{
			"name":"Cylinder.009",
			"primitives":[
				{
					"attributes":{
						"POSITION":4,
						"NORMAL":5,
						"TEXCOORD_0":6
					},
					"indices":7,
					"material":1
				}
			]
		}
	],
	"accessors":[
		{
			"bufferView":0,
			"componentType":5126,
			"count":728,
			"max":[
				0.3754660189151764,
				3.816610813140869,
				0.37546613812446594
			],
			"min":[
				-0.3754664361476898,
				4.76837158203125e-07,
				-0.37546613812446594
			],
			"type":"VEC3"
		},
		{
			"bufferView":1,
			"componentType":5126,
			"count":728,
			"type":"VEC3"
		},
		{
			"bufferView":2,
			"componentType":5126,
			"count":728,
			"type":"VEC2"
		},
		{
			"bufferView":3,
			"componentType":5123,
			"count":1128,
			"type":"SCALAR"
		},
		{
			"bufferView":4,
			"componentType":5126,
			"count":48,
			"max":[
				0.9763059616088867,
				4.851412296295166,
				0.9763075709342957
			],
			"min":[
				-0.9763090014457703,
				2.8987972736358643,
				-0.9763075709342957
			],
			"type":"VEC3"
		},
		{
			"bufferView":5,
			"componentType":5126,
			"count":48,
			"type":"VEC3"
		},
		{
			"bufferView":6,
			"componentType":5126,
			"count":48,
			"type":"VEC2"
		},
		{
			"bufferView":7,
			"componentType":5123,
			"count":72,
			"type":"SCALAR"
		}
	],
	"bufferViews":[
		{
			"buffer":0,
			"byteLength":8736,
			"byteOffset":0,
			"target":34962
		},
		{
			"buffer":0,
			"byteLength":8736,
			"byteOffset":8736,
			"target":34962
		},
		{
			"buffer":0,
			"byteLength":5824,
			"byteOffset":17472,
			"target":34962
		},
		{
			"buffer":0,
			"byteLength":2256,
			"byteOffset":23296,
			"target":34963
		},
		{
			"buffer":0,
			"byteLength":576,
			"byteOffset":25552,
			"target":34962
		},
		{
			"buffer":0,
			"byteLength":576,
			"byteOffset":26128,
			"target":34962
		},
		{
			"buffer":0,
			"byteLength":384,
			"byteOffset":26704,
			"target":34962
		},
		{
			"buffer":0,
			"byteLength":144,
			"byteOffset":27088,
			"target":34963
		}
	],
	"buffers":[
		{
			"byteLength":27232,
			"uri":"BurningBarrel.bin"
		}
	]
}
